# xmcd
# 
# Track frame offsets:
#     150
#     19333
#     47137
#     67557
#     89137
#     110450
#     129088
#     149192
#     169598
#     193568
#     218127
#     237074
#     256556
#     274599
# 
# Disc length: 4057
# 
# Revision: 1
# Processed by: cddbd v1.5.2PL0 Copyright (c) Steve Scherf et al.
# Submitted via: BonkEnc v1.0
# 
DISCID=bf0fd70e
DTITLE=Cristina Mel - As canções da minha vida
DYEAR=2005
DGENRE=Gospel
TTITLE0=Fé
TTITLE1=Santo Deus - Usa-me
TTITLE2=Tudo por você
TTITLE3=Para sempre em meu coração
TTITLE4=Se o Espírito Santo te tocar
TTITLE5=Nuvem passageira
TTITLE6=Me levantou Jesus
TTITLE7=Aleluia
TTITLE8=Como eu poderia esquecer
TTITLE9=Ao amigo distante
TTITLE10=Há um anjo neste lugar
TTITLE11=Mestre
TTITLE12=Depende de você
TTITLE13=A mão do mestre
EXTD=
EXTT0=
EXTT1=
EXTT2=
EXTT3=
EXTT4=
EXTT5=
EXTT6=
EXTT7=
EXTT8=
EXTT9=
EXTT10=
EXTT11=
EXTT12=
EXTT13=
PLAYORDER=
